<svg version="1.2" xmlns="http://www.w3.org/2000/svg" viewBox="0 0 1269 724" width="1269" height="724"><defs><clipPath clipPathUnits="userSpaceOnUse" id="cp1"><path d="m0 724h1269v-724h-1269z"/></clipPath><clipPath clipPathUnits="userSpaceOnUse" id="cp2"><path d="m99.75 638.04c19.27 71.89 439.47 21.58 940.06-112.56 500.6-134.13 889.66-300.66 870.4-372.55-19.27-71.9-439.47-21.58-940.06 112.55-500.6 134.13-889.66 300.66-870.4 372.56z"/></clipPath><filter x="-50%" y="-50%" width="200%" height="200%" id="f2"> <feGaussianBlur stdDeviation="45.5"/> </filter><linearGradient id="P" gradientUnits="userSpaceOnUse"/><linearGradient id="g1" x1="938.9" y1="239.7" x2="-398.8" y2="598.2" href="#P"><stop stop-color="#00dc82" stop-opacity=".8"/><stop offset="1" stop-color="#00dc82" stop-opacity="0"/></linearGradient><clipPath clipPathUnits="userSpaceOnUse" id="cp3"><path d="m58.54 296.93c19.27 71.9 427.71 24.74 913.74-105.49 486.04-130.24 863.34-293.62 844.07-365.51-19.26-71.89-427.7-24.73-913.74 105.5-486.03 130.23-863.33 293.61-844.07 365.5z"/></clipPath><filter x="-50%" y="-50%" width="200%" height="200%" id="f3"> <feGaussianBlur stdDeviation="57.2"/> </filter><linearGradient id="g2" x1="871.3" y1="-94.3" x2="-466.3" y2="264.1" href="#P"><stop stop-color="#36e4da" stop-opacity="1"/><stop offset=".2" stop-color="#36e4da" stop-opacity="1"/><stop offset="1" stop-color="#36e4da" stop-opacity="0"/></linearGradient><clipPath clipPathUnits="userSpaceOnUse" id="cp4"><path d="m-163.88 520.87c19.26 71.89 545.49-6.83 1177.25-176.11 631.75-169.27 1126.84-364.22 1107.57-436.11-19.26-71.89-545.49 6.83-1177.24 176.11-631.76 169.27-1126.84 364.22-1107.58 436.11z"/></clipPath><linearGradient id="g3" x1="912.4" y1="59" x2="-425.3" y2="417.5" href="#P"><stop stop-color="#36e4da" stop-opacity="1"/><stop offset=".2" stop-color="#36e4da" stop-opacity="1"/><stop offset="1" stop-color="#36e4da" stop-opacity="0"/></linearGradient></defs><style>.a{mix-blend-mode:multiply;filter:url(#f2);fill:url(#g1)}.b{mix-blend-mode:multiply;filter:url(#f3);fill:url(#g2)}.c{mix-blend-mode:multiply;filter:url(#f2);fill:url(#g3)}</style><g clip-path="url(#cp1)"><filter id="f0"><feFlood flood-color="#000000" flood-opacity="1" /><feBlend mode="normal" in2="SourceGraphic"/><feComposite in2="SourceAlpha" operator="in" /></filter><g filter="url(#f0)"><g style="opacity:.8"><g clip-path="url(#cp2)"><g style="opacity:.4"><path class="a" d="m382.9 562.3c24 89.6 311.4 90.3 642.8 1.5 331.4-88.8 579.9-233 555.9-322.6-24-89.6-311.3-90.3-642.7-1.5-331.5 88.9-580 233.1-556 322.6z"/></g></g></g><g style="opacity:.8"><g clip-path="url(#cp3)"><g style="opacity:.4"><path class="b" d="m315.4 228.3c24 89.6 311.3 90.2 642.8 1.4 331.4-88.8 579.9-233 555.9-322.6-24-89.6-311.3-90.2-642.8-1.4-331.4 88.8-579.9 233-555.9 322.6z"/></g></g></g><g style="opacity:.8"><g clip-path="url(#cp4)"><g style="opacity:.4"><path class="c" d="m356.5 381.6c24 89.6 311.3 90.3 642.7 1.4 331.5-88.8 580-233 556-322.6-24-89.5-311.3-90.2-642.8-1.4-331.4 88.8-579.9 233-555.9 322.6z"/></g></g></g></g></g></svg>